<?xml version="1.0" encoding="UTF-8" standalone="no"?>
<!-- Created with Inkscape (http://www.inkscape.org/) -->

<svg
   version="1.1"
   id="svg1"
   width="666.66669"
   height="666.66669"
   viewBox="0 0 666.66669 666.66669"
   sodipodi:docname="min_logo.svg"
   inkscape:version="1.3.2 (091e20e, 2023-11-25, custom)"
   xmlns:inkscape="http://www.inkscape.org/namespaces/inkscape"
   xmlns:sodipodi="http://sodipodi.sourceforge.net/DTD/sodipodi-0.dtd"
   xmlns:xlink="http://www.w3.org/1999/xlink"
   xmlns="http://www.w3.org/2000/svg"
   xmlns:svg="http://www.w3.org/2000/svg">
  <sodipodi:namedview
     id="namedview2"
     pagecolor="#ffffff"
     bordercolor="#000000"
     borderopacity="0.25"
     inkscape:showpageshadow="2"
     inkscape:pageopacity="0.0"
     inkscape:pagecheckerboard="0"
     inkscape:deskcolor="#d1d1d1"
     inkscape:zoom="1.1205"
     inkscape:cx="333.33333"
     inkscape:cy="333.33333"
     inkscape:window-width="1920"
     inkscape:window-height="991"
     inkscape:window-x="2391"
     inkscape:window-y="-9"
     inkscape:window-maximized="1"
     inkscape:current-layer="svg1" />
  <defs
     id="defs1">
    <color-profile
       name="sRGB-IEC61966-2.1"
       xlink:href="../../../../../Windows/system32/spool/drivers/color/sRGB%20Color%20Space%20Profile.icm"
       id="color-profile1" />
    <clipPath
       clipPathUnits="userSpaceOnUse"
       id="clipPath47">
      <path
         d="M 0,500 H 500 V 0 H 0 Z"
         transform="translate(-343.07191,-425.20971)"
         id="path47" />
    </clipPath>
    <clipPath
       clipPathUnits="userSpaceOnUse"
       id="clipPath49">
      <path
         d="M 0,500 H 500 V 0 H 0 Z"
         transform="translate(-375.62561,-416.73941)"
         id="path49" />
    </clipPath>
    <clipPath
       clipPathUnits="userSpaceOnUse"
       id="clipPath51">
      <path
         d="M 0,500 H 500 V 0 H 0 Z"
         transform="translate(-353.52801,-376.94451)"
         id="path51" />
    </clipPath>
    <clipPath
       clipPathUnits="userSpaceOnUse"
       id="clipPath53">
      <path
         d="M 0,500 H 500 V 0 H 0 Z"
         transform="translate(-361.05821,-392.88451)"
         id="path53" />
    </clipPath>
    <clipPath
       clipPathUnits="userSpaceOnUse"
       id="clipPath55">
      <path
         d="M 0,500 H 500 V 0 H 0 Z"
         transform="translate(-345.17741,-410.57241)"
         id="path55" />
    </clipPath>
    <clipPath
       clipPathUnits="userSpaceOnUse"
       id="clipPath57">
      <path
         d="M 0,500 H 500 V 0 H 0 Z"
         transform="translate(-342.03381,-392.33861)"
         id="path57" />
    </clipPath>
    <clipPath
       clipPathUnits="userSpaceOnUse"
       id="clipPath59">
      <path
         d="M 0,500 H 500 V 0 H 0 Z"
         transform="translate(-346.56121,-372.09301)"
         id="path59" />
    </clipPath>
  </defs>
  <path
     id="path46"
     d="m 0,0 c -10.983,-2.358 -22.702,-7.119 -27.548,-17.253 -2.821,-5.901 -2.832,-12.705 -2.73,-19.244 0.121,-7.774 0.504,-16.103 5.141,-22.345 5.2,-6.998 14.397,-9.566 22.992,-11.018 6.641,-1.121 13.348,-1.848 20.075,-2.173 14.273,-0.69 29.525,0.75 40.94,9.347 9.312,7.013 15.056,18.535 15.05,30.192 C 73.914,-19.009 67.207,-5.211 54.026,-0.439 37.601,5.506 16.704,3.586 0,0"
     style="fill:#f7cced;fill-opacity:1;fill-rule:nonzero;stroke:none"
     transform="matrix(6.164567,0,0,-6.164567,205.73819,112.25431)"
     clip-path="url(#clipPath47)" />
  <path
     id="path48"
     d="m 0,0 c -3.008,-3.08 -7.849,-3.23 -10.813,-0.335 -2.963,2.894 -2.928,7.737 0.08,10.816 3.006,3.081 7.847,3.23 10.811,0.336 C 3.042,7.923 3.007,3.08 0,0"
     style="fill:#5c326d;fill-opacity:1;fill-rule:nonzero;stroke:none"
     transform="matrix(6.164567,0,0,-6.164567,406.41764,164.47003)"
     clip-path="url(#clipPath49)" />
  <path
     id="path50"
     d="m 0,0 c 0,0 -2.242,13.138 10.343,23.148 7.589,6.036 29.536,13.625 29.536,13.625 0,0 -0.275,2.316 -3.165,1.318 C 26.781,34.663 15.441,32.554 9.815,35.63 4.292,38.651 4.721,45.188 8.409,51.541 c 4.747,8.175 15.735,11.339 15.735,11.339 0,0 -0.917,1.284 -3.868,0.528 C 15.819,62.266 9.024,59.423 3.398,51.453 -5.998,38.14 -6.043,23.832 -4.864,14.621 -3.458,3.633 0,0 0,0"
     style="fill:#5c326d;fill-opacity:1;fill-rule:nonzero;stroke:none"
     transform="matrix(6.164567,0,0,-6.164567,270.19554,409.78838)"
     clip-path="url(#clipPath51)" />
  <path
     id="path52"
     d="m 0,0 c 0,0 -8.966,-14.622 0.176,-31.382 9.141,-16.76 22.884,-21.126 22.884,-21.126 0,0 -7.238,10.138 -12.423,19.456 -5.489,9.86 -5.275,17.932 -5.275,17.932 0,0 13.039,-8.116 25.228,-1.318 12.189,6.798 10.871,20.892 10.871,20.892 0,0 -6.541,-16.016 -20.98,-15.354 C 8.966,-10.373 0,0 0,0"
     style="fill:#5c326d;fill-opacity:1;fill-rule:nonzero;stroke:none"
     transform="matrix(6.164567,0,0,-6.164567,316.61594,311.52519)"
     clip-path="url(#clipPath53)" />
  <path
     id="path54"
     d="m 0,0 c 0,-2.778 -2.252,-5.03 -5.029,-5.03 -2.779,0 -5.031,2.252 -5.031,5.03 0,2.778 2.252,5.03 5.031,5.03 C -2.252,5.03 0,2.778 0,0"
     style="fill:#da55c3;fill-opacity:1;fill-rule:nonzero;stroke:none"
     transform="matrix(6.164567,0,0,-6.164567,218.71767,202.48692)"
     clip-path="url(#clipPath55)" />
  <path
     id="path56"
     d="m 0,0 c 0,-3.333 -2.702,-6.036 -6.036,-6.036 -3.333,0 -6.035,2.703 -6.035,6.036 0,3.333 2.702,6.036 6.035,6.036 C -2.702,6.036 0,3.333 0,0"
     style="fill:#da55c3;fill-opacity:1;fill-rule:nonzero;stroke:none"
     transform="matrix(6.164567,0,0,-6.164567,199.33876,314.8904)"
     clip-path="url(#clipPath57)" />
  <path
     id="path58"
     d="m 0,0 c 0,-2.917 -2.364,-5.282 -5.281,-5.282 -2.917,0 -5.282,2.365 -5.282,5.282 0,2.917 2.365,5.281 5.282,5.281 C -2.364,5.281 0,2.917 0,0"
     style="fill:#da55c3;fill-opacity:1;fill-rule:nonzero;stroke:none"
     transform="matrix(6.164567,0,0,-6.164567,227.24822,439.69579)"
     clip-path="url(#clipPath59)" />
</svg>
